name rise34.3697peak60.0498fall86.3158.mot
datacolumns 19
datarows 35
range 19.17492900000000 19.23159000000000
endheader
time	ground_force1_vx	ground_force1_vy	ground_force1_vz	ground_force1_px	ground_force1_py	ground_force1_pz	ground_force2_vx	ground_force2_vy	ground_force2_vz	ground_force2_px	ground_force2_py	ground_force2_pz	ground_torque1_x	ground_torque1_y	ground_torque1_z	ground_torque2_x	ground_torque2_y	ground_torque2_z	
19.17492900000000	-6.64713100000000	43.96755900000000	-8.04361000000000	0.36671700000000	0.00000000000000	0.11026000000000	-44.62256300000000	772.68094900000006	-56.10720500000000	0.18159100000000	0.00000000000000	-0.08232800000000	0.00000000000000	-6.24987300000000	0.00000000000000	0.00000000000000	-24.20646300000000	0.00000000000000	
19.17659000000000	-7.19568000000000	51.68512600000000	-8.98698600000000	0.36792000000000	0.00000000000000	0.11143300000000	-44.96429000000000	769.96997299999998	-55.90490200000000	0.18059500000000	0.00000000000000	-0.08228400000000	0.00000000000000	-7.03729300000000	0.00000000000000	0.00000000000000	-24.10501400000000	0.00000000000000	
19.17825900000000	-7.59179500000000	59.53558200000000	-9.82140200000000	0.36932300000000	0.00000000000000	0.11246700000000	-45.33432100000000	767.16231600000003	-55.68136000000000	0.17958700000000	0.00000000000000	-0.08223700000000	0.00000000000000	-7.75940400000000	0.00000000000000	0.00000000000000	-24.00390100000000	0.00000000000000	
19.17992400000000	-7.81666600000000	67.41911300000000	-10.52468100000000	0.37089600000000	0.00000000000000	0.11338400000000	-45.73248600000000	764.25695299999995	-55.43637600000000	0.17857000000000	0.00000000000000	-0.08218600000000	0.00000000000000	-8.39970600000000	0.00000000000000	0.00000000000000	-23.90315800000000	0.00000000000000	
19.18159200000000	-7.85955300000000	75.25864199999999	-11.08220500000000	0.37261100000000	0.00000000000000	0.11420400000000	-46.15850300000000	761.25273800000002	-55.16976700000000	0.17754400000000	0.00000000000000	-0.08213200000000	0.00000000000000	-8.94688700000000	0.00000000000000	0.00000000000000	-23.80280100000000	0.00000000000000	
19.18326300000000	-7.71759700000000	83.00234399999999	-11.48697800000000	0.37444900000000	0.00000000000000	0.11494100000000	-46.61198100000000	758.14839900000004	-54.88137800000000	0.17651300000000	0.00000000000000	-0.08207500000000	0.00000000000000	-9.39495100000000	0.00000000000000	0.00000000000000	-23.70283600000000	0.00000000000000	
19.18492400000000	-7.39501800000000	90.62366000000000	-11.73905700000000	0.37639200000000	0.00000000000000	0.11560800000000	-47.09241300000000	754.94254100000001	-54.57107500000000	0.17547700000000	0.00000000000000	-0.08201400000000	0.00000000000000	-9.74291000000000	0.00000000000000	0.00000000000000	-23.60325300000000	0.00000000000000	
19.18659900000000	-6.90187600000000	98.11923400000001	-11.84450500000000	0.37842400000000	0.00000000000000	0.11621300000000	-47.59917600000000	751.63364799999999	-54.23875100000000	0.17444000000000	0.00000000000000	-0.08194900000000	0.00000000000000	-9.99411000000000	0.00000000000000	0.00000000000000	-23.50402600000000	0.00000000000000	
19.18826200000000	-6.25256700000000	105.50529500000000	-11.81403300000000	0.38053300000000	0.00000000000000	0.11676500000000	-48.13153400000000	748.22009000000003	-53.88432400000000	0.17340300000000	0.00000000000000	-0.08187900000000	0.00000000000000	-10.15532200000000	0.00000000000000	0.00000000000000	-23.40511400000000	0.00000000000000	
19.18992600000000	-5.46422700000000	112.81306800000000	-11.66150900000000	0.38270600000000	0.00000000000000	0.11727100000000	-48.68863400000000	744.70012099999997	-53.50773700000000	0.17236900000000	0.00000000000000	-0.08180600000000	0.00000000000000	-10.23570600000000	0.00000000000000	0.00000000000000	-23.30646100000000	0.00000000000000	
19.19159300000000	-4.55519600000000	120.08374700000000	-11.40245900000000	0.38493400000000	0.00000000000000	0.11773600000000	-49.26950700000000	741.07188900000006	-53.10896200000000	0.17134000000000	0.00000000000000	-0.08172800000000	0.00000000000000	-10.24575900000000	0.00000000000000	0.00000000000000	-23.20799400000000	0.00000000000000	
19.19326100000000	-3.54364100000000	127.36352900000000	-11.05270300000000	0.38720800000000	0.00000000000000	0.11816500000000	-49.87306900000000	737.33344099999999	-52.68799700000000	0.17031800000000	0.00000000000000	-0.08164600000000	0.00000000000000	-10.19632600000000	0.00000000000000	0.00000000000000	-23.10962100000000	0.00000000000000	
19.19492800000000	-2.44643800000000	134.69908799999999	-10.62720800000000	0.38952000000000	0.00000000000000	0.11856200000000	-50.49812100000000	733.48272799999995	-52.24486800000000	0.16930400000000	0.00000000000000	-0.08155900000000	0.00000000000000	-10.09775300000000	0.00000000000000	0.00000000000000	-23.01123700000000	0.00000000000000	
19.19659700000000	-1.27835000000000	142.13377600000001	-10.13919700000000	0.39186300000000	0.00000000000000	0.11893100000000	-51.14335200000000	729.51761899999997	-51.77962900000000	0.16830200000000	0.00000000000000	-0.08146800000000	0.00000000000000	-9.95921800000000	0.00000000000000	0.00000000000000	-22.91271800000000	0.00000000000000	
19.19826500000000	-0.05150700000000	149.70470700000001	-9.59956000000000	0.39422900000000	0.00000000000000	0.11927300000000	-51.80733700000000	725.43590600000005	-51.29236700000000	0.16731300000000	0.00000000000000	-0.08137100000000	0.00000000000000	-9.78825800000000	0.00000000000000	0.00000000000000	-22.81392300000000	0.00000000000000	
19.19992900000000	1.22481800000000	157.44080000000000	-9.01654400000000	0.39661400000000	0.00000000000000	0.11959300000000	-52.48854100000000	721.23531400000002	-50.78319600000000	0.16633900000000	0.00000000000000	-0.08126900000000	0.00000000000000	-9.59051400000000	0.00000000000000	0.00000000000000	-22.71469400000000	0.00000000000000	
19.20159300000000	2.54417700000000	165.36175200000000	-8.39569800000000	0.39901100000000	0.00000000000000	0.11989100000000	-53.18532300000000	716.91351699999996	-50.25226200000000	0.16538200000000	0.00000000000000	-0.08116300000000	0.00000000000000	-9.36964500000000	0.00000000000000	0.00000000000000	-22.61485700000000	0.00000000000000	
19.20326300000000	3.90270300000000	173.47785200000001	-7.74003600000000	0.40141600000000	0.00000000000000	0.12017100000000	-53.89593500000000	712.46814500000005	-49.69974500000000	0.16444400000000	0.00000000000000	-0.08105000000000	0.00000000000000	-9.12742200000000	0.00000000000000	0.00000000000000	-22.51422200000000	0.00000000000000	
19.20492900000000	5.29872100000000	181.79050000000001	-7.05036700000000	0.40382300000000	0.00000000000000	0.12043300000000	-54.61853000000000	707.89680499999997	-49.12585600000000	0.16352700000000	0.00000000000000	-0.08093300000000	0.00000000000000	-8.86393900000000	0.00000000000000	0.00000000000000	-22.41258200000000	0.00000000000000	
19.20659700000000	6.73225100000000	190.29325200000000	-6.32572600000000	0.40622900000000	0.00000000000000	0.12067900000000	-55.35115900000000	703.19709000000000	-48.53083900000000	0.16263200000000	0.00000000000000	-0.08081000000000	0.00000000000000	-8.57791600000000	0.00000000000000	0.00000000000000	-22.30971500000000	0.00000000000000	
19.20825700000000	8.20448700000000	198.97322500000001	-5.56386900000000	0.40862800000000	0.00000000000000	0.12091000000000	-56.09178100000000	698.36659899999995	-47.91497400000000	0.16176200000000	0.00000000000000	-0.08068100000000	0.00000000000000	-8.26705900000000	0.00000000000000	0.00000000000000	-22.20538500000000	0.00000000000000	
19.20993100000000	9.71727000000000	207.81269699999999	-4.76178000000000	0.41101800000000	0.00000000000000	0.12112800000000	-56.83826500000000	693.40295400000002	-47.27857300000000	0.16091800000000	0.00000000000000	-0.08054700000000	0.00000000000000	-7.92842500000000	0.00000000000000	0.00000000000000	-22.09933900000000	0.00000000000000	
19.21158900000000	11.27260700000000	216.79072700000000	-3.91613600000000	0.41339400000000	0.00000000000000	0.12133300000000	-57.58839500000000	688.30381699999998	-46.62198500000000	0.16010100000000	0.00000000000000	-0.08040700000000	0.00000000000000	-7.55879000000000	0.00000000000000	0.00000000000000	-21.99131400000000	0.00000000000000	
19.21325700000000	12.87227000000000	225.88469699999999	-3.02373100000000	0.41575200000000	0.00000000000000	0.12152600000000	-58.33987500000000	683.06691100000000	-45.94559500000000	0.15931400000000	0.00000000000000	-0.08026100000000	0.00000000000000	-7.15496200000000	0.00000000000000	0.00000000000000	-21.88103000000000	0.00000000000000	
19.21492600000000	14.51747200000000	235.07166100000001	-2.08180600000000	0.41809000000000	0.00000000000000	0.12170900000000	-59.09033300000000	677.69003799999996	-45.24982000000000	0.15855600000000	0.00000000000000	-0.08010900000000	0.00000000000000	-6.71405300000000	0.00000000000000	0.00000000000000	-21.76819800000000	0.00000000000000	
19.21659400000000	16.20864400000000	244.32945400000000	-1.08830300000000	0.42040500000000	0.00000000000000	0.12188100000000	-59.83733100000000	672.17110300000002	-44.53511700000000	0.15783100000000	0.00000000000000	-0.07995100000000	0.00000000000000	-6.23368500000000	0.00000000000000	0.00000000000000	-21.65251600000000	0.00000000000000	
19.21826300000000	17.94531200000000	253.63751600000001	-0.04202000000000	0.42269200000000	0.00000000000000	0.12204400000000	-60.57836800000000	666.50812900000005	-43.80197600000000	0.15713800000000	0.00000000000000	-0.07978800000000	0.00000000000000	-5.71212600000000	0.00000000000000	0.00000000000000	-21.53367400000000	0.00000000000000	
19.21992300000000	19.72604400000000	262.97743400000002	1.05731000000000	0.42495000000000	0.00000000000000	0.12219800000000	-61.31088800000000	660.69928000000004	-43.05092500000000	0.15647900000000	0.00000000000000	-0.07961800000000	0.00000000000000	-5.14836800000000	0.00000000000000	0.00000000000000	-21.41135200000000	0.00000000000000	
19.22159000000000	21.54848800000000	272.33322399999997	2.20902200000000	0.42717600000000	0.00000000000000	0.12234300000000	-62.03228400000000	654.74287600000002	-42.28252500000000	0.15585600000000	0.00000000000000	-0.07944300000000	0.00000000000000	-4.54214000000000	0.00000000000000	0.00000000000000	-21.28522100000000	0.00000000000000	
19.22325800000000	23.40945500000000	281.69137499999999	3.41157100000000	0.42936500000000	0.00000000000000	0.12248000000000	-62.73991100000000	648.63741600000003	-41.49737400000000	0.15526900000000	0.00000000000000	-0.07926100000000	0.00000000000000	-3.89388400000000	0.00000000000000	0.00000000000000	-21.15494900000000	0.00000000000000	
19.22493000000000	25.30504400000000	291.04071299999998	4.66263900000000	0.43151700000000	0.00000000000000	0.12260900000000	-63.43108600000000	642.38158799999997	-40.69610800000000	0.15471900000000	0.00000000000000	-0.07907300000000	0.00000000000000	-3.20468500000000	0.00000000000000	0.00000000000000	-21.02019500000000	0.00000000000000	
19.22659100000000	27.23079500000000	300.37212299999999	5.95926200000000	0.43362900000000	0.00000000000000	0.12273100000000	-64.10310400000000	635.97428800000000	-39.87939400000000	0.15420700000000	0.00000000000000	-0.07887900000000	0.00000000000000	-2.47617800000000	0.00000000000000	0.00000000000000	-20.88061800000000	0.00000000000000	
19.22826400000000	29.18184900000000	309.67818899999997	7.29797500000000	0.43569700000000	0.00000000000000	0.12284500000000	-64.75323899999999	629.41462700000000	-39.04793800000000	0.15373400000000	0.00000000000000	-0.07868000000000	0.00000000000000	-1.71044900000000	0.00000000000000	0.00000000000000	-20.73587500000000	0.00000000000000	
19.22992900000000	31.15309500000000	318.95279399999998	8.67495400000000	0.43772000000000	0.00000000000000	0.12295300000000	-65.37875500000000	622.70194400000003	-38.20247900000000	0.15330000000000	0.00000000000000	-0.07847300000000	0.00000000000000	-0.90992300000000	0.00000000000000	0.00000000000000	-20.58562200000000	0.00000000000000	
19.23159000000000	33.13932000000000	328.19072100000000	10.08615500000000	0.43969600000000	0.00000000000000	0.12305400000000	-65.97691700000000	615.83581300000003	-37.34379200000000	0.15290700000000	0.00000000000000	-0.07826100000000	0.00000000000000	-0.07726100000000	0.00000000000000	0.00000000000000	-20.42952000000000	0.00000000000000	
